<?xml version="1.0" encoding="utf-8"?>
<!-- Generator: Adobe Illustrator 24.0.2, SVG Export Plug-In . SVG Version: 6.00 Build 0)  -->
<svg version="1.1" xmlns="http://www.w3.org/2000/svg" xmlns:xlink="http://www.w3.org/1999/xlink" x="0px" y="0px"
	 viewBox="0 0 566.93 566.93" style="enable-background:new 0 0 566.93 566.93;" xml:space="preserve">
<style type="text/css">
	.st0{fill:#CAD2C5;}
	.st1{fill:#84A98D;}
	.st2{fill:#E7EEFA;}
	.st3{fill:#43625C;}
</style>
<g id="OBJECTS">
	<path class="st0" d="M101.32,259.83c15.54,55.32,26.06,112.04,31.39,169.25c53.15,12.43,107.27,32.23,150.75,66.3
		c-0.02-53.06,0-178.06,0-178.06s-29.45-24.49-68.55-38.36C178.5,266.04,139.95,258.69,101.32,259.83z"/>
	<path class="st1" d="M283.46,311.89c0,0-53.39-54.89-165.91-59.28l-4.35-18.48C113.21,234.13,244.56,241.97,283.46,311.89z"/>
	<path class="st2" d="M283.46,302.14c0,0-43.34-64.42-154.75-75.65l-3.55-17.73C125.17,208.75,231.55,218.8,283.46,302.14z"/>
	<path class="st3" d="M465.61,259.84c-15.54,55.32-26.06,112.04-31.39,169.25c-53.15,12.43-107.27,32.23-150.75,66.29
		c0.02-53.06,0-178.07,0-178.07s29.45-24.48,68.55-38.35C388.43,266.04,426.98,258.7,465.61,259.84z"/>
	<path class="st1" d="M283.46,311.89c0,0,53.39-54.89,165.91-59.28l4.35-18.48C453.72,234.14,322.37,241.97,283.46,311.89z"/>
	<path class="st2" d="M283.46,302.14c0,0,43.34-64.42,154.75-75.65l3.55-17.73C441.76,208.76,335.38,218.81,283.46,302.14z"/>
	<g>
		<g>
			<path class="st3" d="M243.5,210.79c-8.22,0-14.91-6.69-14.91-14.92c0-8.22,6.69-14.92,14.91-14.92c8.22,0,14.92,6.69,14.92,14.92
				C258.42,204.1,251.73,210.79,243.5,210.79z M243.5,185.04c-5.97,0-10.83,4.86-10.83,10.84c0,5.98,4.86,10.84,10.83,10.84
				c5.97,0,10.84-4.86,10.84-10.84C254.34,189.9,249.48,185.04,243.5,185.04z"/>
		</g>
	</g>
	<g>
		<path class="st2" d="M367.24,197.92c-10.7,0-19.4-8.7-19.4-19.4c0-10.7,8.7-19.4,19.4-19.4s19.4,8.7,19.4,19.4
			C386.64,189.21,377.93,197.92,367.24,197.92z M367.24,163.19c-8.45,0-15.32,6.87-15.32,15.32c0,8.45,6.87,15.32,15.32,15.32
			c8.45,0,15.32-6.87,15.32-15.32C382.56,170.07,375.68,163.19,367.24,163.19z"/>
	</g>
	<g>
		<g>
			<path class="st0" d="M176.32,194.16c-4.23,0-7.67-3.44-7.67-7.67c0-4.23,3.44-7.67,7.67-7.67c4.23,0,7.67,3.44,7.67,7.67
				C184,190.72,180.55,194.16,176.32,194.16z M176.32,182.89c-1.98,0-3.59,1.61-3.59,3.59c0,1.98,1.61,3.59,3.59,3.59
				c1.98,0,3.59-1.61,3.59-3.59C179.92,184.5,178.3,182.89,176.32,182.89z"/>
		</g>
	</g>
	<g>
		<g>
			<path class="st3" d="M318.08,137.43l-7.78-3.33c-1.11-0.47-1.91-1.46-2.15-2.65l-1.67-8.29c-0.6-2.98-4.35-3.97-6.35-1.69
				l-5.57,6.37c-0.79,0.91-1.98,1.37-3.18,1.23l-8.4-0.98c-3.02-0.35-5.12,2.91-3.57,5.52l4.34,7.27c0.62,1.04,0.69,2.31,0.18,3.4
				l-3.53,7.69c-1.27,2.76,1.18,5.77,4.14,5.1l8.25-1.88c1.18-0.27,2.41,0.06,3.29,0.88l6.23,5.73c2.23,2.06,5.85,0.66,6.13-2.36
				l0.76-8.43c0.11-1.2,0.8-2.27,1.85-2.86l7.37-4.15C321.08,142.5,320.87,138.62,318.08,137.43z"/>
		</g>
	</g>
	<g>
		<path class="st2" d="M222.37,78.26l-12.09,3.51c-1.72,0.5-3.58,0.12-4.97-1.02l-9.74-7.97c-3.5-2.86-8.75-0.47-8.89,4.04
			l-0.4,12.58c-0.06,1.79-0.99,3.44-2.5,4.41l-10.59,6.8c-3.8,2.44-3.15,8.18,1.1,9.71l11.84,4.27c1.69,0.61,2.97,2.01,3.42,3.74
			l3.2,12.17c1.15,4.37,6.8,5.52,9.57,1.96l7.72-9.94c1.1-1.42,2.83-2.2,4.62-2.1l12.56,0.72c4.51,0.26,7.36-4.76,4.82-8.5
			l-7.07-10.41c-1.01-1.48-1.22-3.37-0.57-5.04l4.57-11.73C230.6,81.27,226.71,77.01,222.37,78.26z"/>
	</g>
	<g>
		<g>
			<path class="st0" d="M290.68,235.71l-6.26,1.23c-0.89,0.18-1.81-0.1-2.46-0.73l-4.56-4.46c-1.64-1.6-4.39-0.63-4.67,1.64
				l-0.76,6.33c-0.11,0.9-0.65,1.69-1.46,2.11l-5.65,2.96c-2.03,1.06-1.95,3.99,0.12,4.95l5.78,2.68c0.82,0.38,1.41,1.14,1.56,2.04
				l1.07,6.28c0.38,2.25,3.19,3.09,4.74,1.41l4.34-4.67c0.62-0.67,1.52-0.98,2.42-0.85l6.31,0.92c2.26,0.33,3.92-2.08,2.81-4.07
				l-3.1-5.57c-0.44-0.79-0.47-1.75-0.06-2.57l2.83-5.71C294.7,237.59,292.93,235.27,290.68,235.71z"/>
		</g>
	</g>
	<g>
		<g>
			<path class="st0" d="M446.35,134.48l-8.14-5.06c-1.16-0.72-1.89-1.97-1.95-3.33l-0.44-9.57c-0.16-3.44-4.19-5.2-6.82-2.98
				l-7.33,6.18c-1.04,0.88-2.45,1.19-3.77,0.83l-9.24-2.54c-3.32-0.91-6.24,2.38-4.94,5.56l3.61,8.88c0.51,1.27,0.37,2.7-0.38,3.84
				l-5.27,8.01c-1.89,2.87,0.33,6.67,3.76,6.42l9.56-0.69c1.36-0.1,2.68,0.48,3.54,1.55l5.99,7.48c2.15,2.69,6.44,1.74,7.27-1.6
				l2.3-9.3c0.33-1.33,1.29-2.4,2.56-2.89l8.97-3.38C448.84,140.67,449.27,136.3,446.35,134.48z"/>
		</g>
	</g>
	<path class="st0" d="M320.3,190.21c0,2.06-1.67,3.73-3.73,3.73s-3.73-1.67-3.73-3.73c0-2.06,1.67-3.73,3.73-3.73
		S320.3,188.15,320.3,190.21z"/>
	<path class="st2" d="M150.42,130.85c0,2.06-1.67,3.73-3.73,3.73c-2.06,0-3.73-1.67-3.73-3.73c0-2.06,1.67-3.73,3.73-3.73
		C148.75,127.12,150.42,128.79,150.42,130.85z"/>
	<circle class="st2" cx="371.17" cy="112.55" r="7.66"/>
	<circle class="st3" cx="228.9" cy="146.19" r="5.94"/>
</g>
<g id="Capa_1">
	<path class="st1" d="M400.95,330.2c0.37,2.49-1.16,5.52,0.45,7.12c1.59,1.58,4.62,0.11,7.01,0.39c2.11,0.25,4.23,0.37,6.32,0.7
		c2.37,0.38,3.43,1.68,2.31,4.09c-1.32,2.84-2.58,5.71-4.07,8.46c-0.87,1.6-0.66,2.29,1.11,2.78c2.84,0.79,5.41,2.26,7.97,3.68
		c3.21,1.78,3.41,3.31,0.84,5.84c-2.38,2.34-4.73,4.73-7.55,6.56c-1.88,1.22-2.26,2.28-0.26,3.86c2.95,2.35,5.18,5.38,7.14,8.59
		c1.33,2.17,1.14,3.65-1.59,4.59c-3.25,1.12-6.48,2.34-9.88,2.86c-2.52,0.39-3.33,1.29-2.12,3.75c1.53,3.12,2.07,6.55,2.54,9.96
		c0.46,3.38-0.3,4.06-3.75,3.97c-2.75-0.07-5.41-0.64-8.08-1.24c-1.75-0.4-2.82-0.03-2.94,2.16c-0.17,3.12-0.5,6.24-1.46,9.27
		c-0.78,2.44-2.09,3.01-4.33,1.85c-3.33-1.71-6.6-3.54-9.54-5.88c-1.48-1.18-2.32-1.09-3.17,0.72c-1.64,3.48-3.66,6.76-6.28,9.61
		c-2.04,2.22-3.03,2.24-4.83-0.07c-1.36-1.75-2.66-3.57-3.82-5.47c-0.9-1.48-1.65-1.71-3.07-0.54c-1.78,1.48-3.72,2.79-5.7,4.01
		c-2.74,1.7-3.61,1.36-4.73-1.57c-1.3-3.41-2.21-6.95-2.72-10.55c-0.29-2.07-0.96-2.54-2.96-1.83c-3.52,1.26-7.14,2.28-10.91,2.47
		c-3.37,0.17-4.05-0.55-3.56-3.82c0.41-2.69,0.77-5.43,1.56-8.02c0.74-2.44-0.18-3.15-2.35-3.22c-2.65-0.08-5.2-0.69-7.75-1.36
		c-3.89-1.02-4.42-2.08-2.49-5.47c1.75-3.08,3.54-6.14,5.91-8.79c1.17-1.31,1.18-2-0.53-2.91c-3.4-1.79-6.66-3.84-9.43-6.57
		c-2.34-2.31-2.31-3.38,0.3-5.32c3.34-2.48,6.95-4.52,10.75-6.21c3.43-1.52,3.45-1.52,1.39-4.46c-2.58-3.67-4.44-7.69-5.81-11.95
		c-0.86-2.7-0.22-3.67,2.6-4.09c3.42-0.51,6.88-0.71,10.29-0.3c2.95,0.35,3.51-0.72,3.07-3.34c-0.56-3.42-0.43-6.88,0.16-10.28
		c0.53-3.1,1.39-3.51,4.37-2.6c2.63,0.8,5.17,1.84,7.48,3.29c2.2,1.38,3.14,0.77,3.79-1.55c0.82-2.92,2.11-5.66,3.75-8.24
		c1.36-2.13,2.79-2.35,4.66-0.63c2.55,2.33,5.03,4.74,7.05,7.52c1.45,1.99,2.36,2.55,4.2,0.28c2.23-2.74,4.97-5.05,7.9-7.07
		c2.66-1.83,3.85-1.5,5.11,1.44c0.72,1.67,1.47,3.37,1.85,5.13c0.62,2.93,2.01,2.94,4.33,1.77c1.78-0.9,3.77-1.44,5.71-1.97
		c2.83-0.76,3.62-0.12,3.73,2.91C401,326.45,400.95,328.38,400.95,330.2z M374.5,352.8c3.94-2.44,6.71-6.21,10.29-9.06
		c0.39-0.32,0.51-1.1,0.58-1.69c0.82-7.16-0.28-14.08-2.63-20.85c-0.58-1.66-1.34-1.63-2.66-0.71
		c-10.51,7.31-16.5,24.72-12.73,37.18c0.22,0.74,0.21,1.75,1.26,1.84c1.24,0.11,1.38-0.99,1.66-1.81c0.85-2.48,1.59-5.01,2.48-7.47
		c1.08-2.97,1.7-6.12,3.59-8.81c0.1,3.94-1.13,7.65-1.87,11.43c0.05,0.06,0.12,0.1,0.14,0.17c0.01,0.03-0.06,0.09-0.1,0.14
		C374.49,353.03,374.49,352.91,374.5,352.8z M392.76,354.77c-0.7,0.85-0.88,1.22-1.18,1.42c-4.26,2.91-8.56,5.76-12.79,8.71
		c-0.82,0.57-2.46,0.87-1.9,2.32c0.48,1.24,1.92,0.87,2.99,0.86c15.56-0.2,26.36-10.83,31.92-23.7c1.06-2.45-0.67-2.46-2.24-2.61
		c-13.67-1.27-28.04,6.57-34.55,18.85c-0.35,0.66-1.2,1.33-0.28,2.12c0.71,0.61,1.33-0.03,1.92-0.34c3.05-1.59,6.03-3.32,9.13-4.79
		C387.8,356.65,389.58,355.01,392.76,354.77z M391.01,388.53c-1,0.53-1.31-0.02-1.69-0.28c-4.83-3.33-9.11-7.35-13.69-11
		c-0.79-0.63-1.47-2.03-2.76-1.02c-1.14,0.89-0.36,2.02-0.02,3.04c1.23,3.78,3.11,7.2,5.6,10.32c6.5,8.17,15.41,11.74,25.34,13.45
		c3,0.52,3.51,0.09,2.74-2.9c-3.48-13.43-11.54-22.67-24.95-26.86c-1.62-0.51-3.83-2.27-4.93-0.48c-0.77,1.25,1.72,2.59,2.84,3.78
		C383.25,380.59,387.11,384.5,391.01,388.53z M336.72,367.87c6.63-0.75,12.99-0.64,19.33-0.86c1.39-0.05,3.22,0.55,3.54-1.77
		c0.28-2-1.43-2.26-2.59-2.82c-13.35-6.39-25.73-3.57-37.6,4.05c-1.65,1.06-1.46,1.81-0.01,2.86c11.8,8.55,24.37,10.21,37.8,4.32
		c0.91-0.4,2.38-0.5,2.06-2.13c-0.3-1.49-1.59-1.34-2.66-1.44C350.07,369.47,343.51,369.24,336.72,367.87z M369.15,399.37
		c-1.17-1.51-1.07-3.04-1.15-4.54c-0.23-4.65-0.37-9.31-0.6-13.96c-0.06-1.26,0.24-2.85-1.47-3.29c-1.9-0.49-2.05,1.37-2.57,2.38
		c-6.92,13.48-3.47,26.79,4.61,38.87c1.15,1.72,1.89,0.82,2.69-0.28c3.69-5.09,5.59-10.82,6.98-16.94
		c1.67-7.37-4.27-10.74-7.4-15.73C369.88,390.38,369.52,394.87,369.15,399.37z M362.64,356.27c-0.35-4.89-0.6-8.92-0.11-12.94
		c0.16-1.31-0.57-2.29-1.31-3.29c-3.45-4.63-7.79-8.21-12.91-10.8c-2.28-1.15-4.87-3.92-6.98-2.49c-1.74,1.18-0.77,4.77-0.42,7.22
		c1.84,13.11,5.8,22.25,19.89,25.27c-2.99-5.43-5.85-10.64-8.71-15.85c0.25-0.15,0.5-0.31,0.74-0.46
		C355.91,347.12,358.99,351.31,362.64,356.27z M357.41,383.04c-2.78,1.37-3.94,4.35-7.22,4.66c2.02-3.63,5.24-5.91,7.67-9.87
		c-3.98,1.51-7.3,2.66-10.8,2.89c-2.33,0.15-3.87,1.44-5.2,3.2c-4.29,5.69-6.58,12.18-7.91,19.11c-0.48,2.51,0.3,3.14,2.56,2.67
		c6.75-1.42,12.84-4.16,17.93-8.93c0.68-0.64,1.27-1.26,1.22-2.3C355.47,390.71,356.6,387.12,357.41,383.04z M388.25,371.4
		c5.21,2.67,10.07,5.36,12.83,9.8c3.53,5.67,7.78,5.64,13.02,3.67c0.66-0.25,1.35-0.43,2.02-0.63c1.59-0.49,1.82-1.24,0.76-2.62
		c-4.7-6.08-10.58-10.51-17.87-12.98c-1.24-0.42-2.55-0.66-3.86-0.11C393.04,369.41,390.92,370.29,388.25,371.4z M330.39,341.77
		c-0.5,0-1.01-0.02-1.51,0c-3.65,0.14-3.94,0.57-2.35,3.84c0.97,1.99,2.15,3.86,3.18,5.82c1.84,3.53,4.39,5.2,8.49,3.73
		c1.19-0.43,2.59-0.33,3.89-0.35c1.74-0.03,1.84-0.64,1-2.01c-1.1-1.8-2.51-3.6-2.94-5.58c-0.98-4.53-3.98-5.57-7.95-5.47
		C331.6,341.78,331,341.77,330.39,341.77z M392.32,408.35c-0.2-1.5,1.04-3.72-1.49-4.77c-2.53-1.05-4.92-2.35-7.25-3.79
		c-0.71-0.44-1.27-0.91-1.79,0.4c-2.07,5.25-1.2,8.28,3.47,11.46c0.08,0.06,0.17,0.11,0.25,0.16
		C391.76,415.99,391.76,415.99,392.32,408.35z M329.13,391.32c2.11-0.02,3.69,0.61,4.43-1.21c1.08-2.64,2.58-5.03,4.21-7.36
		c0.68-0.97,0.62-1.48-0.68-1.92c-6.41-2.14-7.63-1.79-11.52,3.72c-0.76,1.07-1.47,2.18-2.2,3.27c-0.99,1.48-1.15,2.57,1.12,2.8
		C326.28,390.82,328.07,391.16,329.13,391.32z M410.24,356.8c-2.02,0.34-2.85,2.18-3.96,3.49c-1.42,1.69-4.79,2.86-4.05,4.88
		c0.57,1.56,3.88,2.1,5.94,3.14c0.91,0.46,1.7,0.45,2.54-0.14c2.64-1.87,5.26-3.75,7.51-6.1c0.61-0.64,1.19-1.35,0.16-1.97
		C415.86,358.59,413.14,357.52,410.24,356.8z M367.62,328.5c-0.18-0.37-0.32-0.75-0.54-1.08c-1.89-2.9-4.25-5.39-6.7-7.82
		c-0.98-0.97-1.55-0.48-2.04,0.54c-1.04,2.2-1.97,4.42-2.54,6.8c-0.27,1.11-0.1,1.9,0.79,2.68c2.04,1.81,3.98,3.73,5.98,5.58
		c0.47,0.44,1.15,1.38,1.68,0.41C365.5,333.33,366.5,330.91,367.62,328.5z M396.9,331.44c0.05,0,0.1,0,0.14,0c0-0.8,0-1.61,0-2.41
		c0-3.09-0.24-3.25-3-2.09c-5,2.1-4.96,2.1-4.38,7.47c0.18,1.69,0.07,3.41,0.1,5.12c0.02,0.9,0.12,1.48,1.4,1.24
		c4.14-0.77,5.4-2.04,5.74-6.32C396.97,333.45,396.9,332.44,396.9,331.44z M355.27,401.6c-2.41,0.28-5.14,3.82-4.69,6.3
		c0.39,2.18,0.83,4.35,1.37,6.49c0.9,3.57,1.14,3.71,4.11,1.25c1.4-1.16,3.96-2.01,2.99-4.63c-1.02-2.75-1.97-5.5-2.63-8.35
		C356.28,402.12,356.3,401.38,355.27,401.6z"/>
	<g>
		<g>
			<path class="st3" d="M156.95,377.4c2.41,0.86,3.47,0.15,3.72-2.55c0.28-3.02,0.97-6.02,1.81-8.94c0.53-1.83,0.78-4.39,3.93-3.68
				c3.08,0.7,5.34,3.29,4.7,5.97c-0.81,3.36-0.98,6.75-1.3,10.15c-0.14,1.49-0.76,3.13,1.65,3.06c2.02-0.06,4.78,1.96,5.61-1.85
				c0.89-4.06,1.95-8.06,3.64-11.89c0.98-2.24,2.23-3.6,4.71-2.53c2.28,0.99,3.29,2.73,2.49,5.34c-0.96,3.15-1.73,6.35-2.61,9.53
				c-0.22,0.82-0.69,1.81,0.35,2.23c1.32,0.53,1.69-0.7,1.93-1.59c0.84-3.1,2.12-5.96,4.09-8.52c2.16-2.82,5.86-4.12,9.02-3.04
				c2.15,0.74,4.99-0.07,6.23,2.75c1.68,3.84,2.93,7.77,2.46,12.03c-0.22,2.01-0.62,3.99-1.07,6.83c1.99-1.87,2.2-3.67,2.73-5.29
				c0.87-2.67,1.55-5.41,2.59-8.01c1.01-2.53,2.73-4.71,5.84-3.6c3.04,1.08,3.31,3.76,2.35,6.41c-2.08,5.78-3.24,11.75-4.27,17.77
				c-0.2,1.14-1.01,2.62,0.43,3.26c1.19,0.54,1.92-0.88,2.52-1.7c3.05-4.24,6.62-8.18,7.52-13.64c0.38-2.3,1.55-4.37,2.74-6.37
				c0.63-1.06,1.44-2.17,2.8-2.06c1.25,0.1,1.55,1.39,2.06,2.35c1.03,1.98,0.83,3.94,0.29,6.04c-1.59,6.21-4.57,12.06-4.88,18.71
				c1.44-0.24,1.51-1.59,2.26-2.3c1.24-1.17,2.56-1.99,4.27-1.42c1.81,0.61,2.59,2.07,2.86,3.89c0.29,1.93-0.23,3.73-2.16,4.04
				c-2.28,0.37-2.13-1.73-2.31-3.6c-1.09,1.43-1.15,2.89-0.84,4.21c0.51,2.16,1.74,3.93,4.28,3.65c2.53-0.28,3.09-2.3,2.75-4.35
				c-0.63-3.84-1.54-7.64-2.36-11.46c-1.23-5.75-1.89-11.49,2.52-16.28c2.15-2.33,4.86-3.35,8.18-2.06c2.79,1.08,3.95,2.91,3.8,5.83
				c-0.09,1.75-1.1,2.85-2.21,4.01c-0.97,1.01-1.86,0.53-2.52-0.17c-0.87-0.91,0.31-1.16,0.77-1.54c1.27-1.06,1.71-2.31,1.17-3.9
				c-0.52-1.54-1.88-2.18-3.16-1.88c-1.58,0.37-2.08,1.93-2,3.51c0.21,3.93,1.43,7.65,2.46,11.41c1.11,4.02,1.8,8.1,1.18,12.29
				c-0.57,3.84-2.55,6.89-6.37,7.64c-4.09,0.8-8.11-0.1-10.79-3.77c-0.92-1.26-1.63-2.35-3.41-2.17c-3.51,0.36-5.14-1.58-5.64-4.81
				c-0.12-0.8,0.18-1.89-0.82-2.24c-1.08-0.38-1.38,0.75-1.87,1.37c-1.84,2.37-4.08,4.18-7.18,3.1c-3.26-1.13-5.11-3.7-5.26-7.24
				c-0.09-2.17-0.02-4.35-0.02-6.67c-1.76,0.05-1.72,1.56-2.19,2.51c-1.2,2.39-2.1,4.89-4.09,6.86c-5.39,5.35-14.71,2.35-15.74-4.58
				c-0.5-3.38-1.27-6.72-0.59-10.16c0.19-0.94,0.61-2.12-0.68-2.46c-1.38-0.37-1.58,1.06-1.75,1.87c-0.83,3.89-2.56,7.77-1.68,11.78
				c0.53,2.41-0.83,2.38-2.06,2.17c-2.51-0.42-4.03-2.05-4.5-4.65c-0.53-2.93-0.18-5.84,0.15-8.74c0.23-1.99-0.01-3.28-2.39-3.51
				c-2.17-0.21-4.42-1.23-5.27,2.03c-0.52,2-1.17,4-2.04,5.87c-1.17,2.51-2.3,5.17-6,4.77c-1.88-0.21-2.66-0.87-2.39-2.76
				c0.27-1.93,0.21-3.93,0.7-5.8c0.99-3.78,1.44-7.3-2.27-9.94C156.2,378.42,156.57,377.91,156.95,377.4z M202.39,371.64
				c-0.44,0.21-0.73,0.25-0.85,0.42c-0.35,0.5-0.66,1.02-0.93,1.56c-3.76,7.66-5.78,15.75-6.04,24.28c-0.05,1.51-0.84,3.67,1.2,4.06
				c2.06,0.39,2.55-1.81,3.18-3.39c2.74-6.89,3.64-14.14,4.14-21.45C203.22,375.35,203.76,373.47,202.39,371.64z"/>
			<path class="st3" d="M182.06,323.32c-1.43,3.35-2.41,6.86-4.03,10.12c-3.01,6.06-8.46,8.26-14.51,5.85
				c-2.02-0.81-3.57-2.08-4.25-4.24c-3.5-11.16-1.41-21.43,5.06-30.95c0.9-1.32,2.4-2.02,3.93-2.57c2.03-0.73,4.22-1.4,5.83,0.35
				c1.51,1.64-0.37,3.21-1.05,4.59c-4.01,8.15-5.59,16.86-6.39,25.79c-0.04,0.48-0.05,0.99,0.06,1.46c0.28,1.12,0.02,2.74,1.6,2.92
				c1.21,0.14,1.85-1.04,2.32-2.04c1.7-3.67,3.36-7.46,3.76-11.45c0.65-6.38,2.87-12.69,1.2-19.23c-0.19-0.75,0-1.49,0.76-1.88
				c0.99-0.5,1.62,0.17,2.2,0.8c3.8,4.1,3.97,9.24,4.11,14.39c0.02,0.6-0.11,1.2-0.15,1.8c0,0.08,0.14,0.17,0.46,0.54
				c1.17-2.63,2.18-5.19,3.43-7.62c1.78-3.47,4.59-5.63,8.6-5.96c1.24-0.1,2.47-0.11,3.28,1.11c0.77,1.16,0.04,2.04-0.47,3.02
				c-4.49,8.73-6.46,18.09-6.83,27.83c-0.05,1.32-0.43,3.03,1.17,3.48c1.81,0.51,2.46-1.15,3.02-2.53
				c3.91-9.64,5.59-19.62,4.46-30.01c-0.07-0.6-0.4-1.18,0.19-1.66c0.69-0.56,1.36-0.25,2.02,0.1c1.23,0.66,2.21,1.6,2.7,2.89
				c1.43,3.78,2.77,7.63,2.19,11.75c-0.82,5.81-1.99,11.53-4.71,16.84c-2.66,5.21-7.8,7.49-13.38,5.91
				c-2.72-0.77-4.36-2.46-5.33-5.05C181.33,334.36,181.56,328.94,182.06,323.32z"/>
			<path class="st3" d="M223.1,352.68c-2.15-0.95-2.76-2.63-3.13-4.49c-0.66-3.4-0.31-6.82-0.17-10.23
				c0.06-1.46,0.28-2.95,0.11-4.38c-0.18-1.46,0.36-3.92-1.52-3.99c-1.72-0.06-0.98,2.37-1.41,3.67
				c-1.73,5.21-3.11,10.57-7.53,14.39c-2.49,2.15-5.21,1.83-7.91,0.77c-1.73-0.68-2.07-2.32-1.78-4c0.15-0.89,0.85-1.48,1.77-1.65
				c0.86-0.17,1.42,0.16,1.51,1.09c0.06,0.62,0.16,1.32,0.97,1.26c0.7-0.04,0.91-0.72,1.11-1.3c0.08-0.23,0.14-0.47,0.19-0.71
				c1.61-8.47,3.64-16.88,4.4-25.5c0.18-2.04,0.16-4.67,2.35-5.17c2.76-0.64,5.24,0.88,6.73,3.43c0.95,1.64,1.05,3.47,0.69,5.34
				c-0.15,0.76-0.8,1.69,0.28,2.27c0.9,0.48,1.62-0.19,2.36-0.58c2.73-1.46,4.85-3.66,7.1-5.72c1.04-0.95,2.39-2.27,3.79-0.82
				c1.46,1.51-0.43,2.28-1.19,3.23c-1.71,2.18-4.15,3.37-6.45,4.74c-1.74,1.03-2.35,1.98-0.38,3.48c2.85,2.18,3.38,5.16,2.69,8.54
				c-0.71,3.47-1.27,6.96-1.91,10.44c-0.18,0.96-0.54,1.92,0.19,2.8c0.79,0.95,1.16,1.89,0,2.83
				C224.95,353.24,223.91,353.13,223.1,352.68z"/>
			<path class="st3" d="M157.11,306.19c-0.4,0.89-0.43,1.01-0.5,1.11c-2.61,3.37-3.56,6.08-0.62,10.55
				c3.24,4.92-3.84,14.71-10.6,16.08c-6.08,1.24-9.57-0.94-10.23-7.09c-0.96-9.04-0.24-18.05,2.15-26.82
				c0.99-3.62,1.6-5.81,6.32-3.24c0.82,0.45,1.59,0.52,2.4-0.02c3.65-2.46,7.45-2.85,10.7,0.34
				C159.84,300.13,157.92,303.65,157.11,306.19z M150.61,306.33c0.16-2.03,3.37-5.13,0.08-6.56c-2.29-0.99-4.64,2.35-5.42,4.82
				c-0.86,2.72-2.68,7.33-0.43,8.19C147.29,313.72,149.24,309.51,150.61,306.33z M149.05,322.92c0.33-2.03,1.97-4.35-0.12-6.05
				c-1.48-1.2-3.19,0.29-4.57,1.2c-1.5,0.99-1,2.65-0.89,4.03c0.16,2.07-0.57,5.48,1.35,5.78
				C146.76,328.17,147.76,324.84,149.05,322.92z"/>
			<path class="st3" d="M272.02,385.26c0.86,0.58,2.06,0.65,1.83,1.79c-0.22,1.15-1.3,1.29-2.3,1.4c-2.21,0.23-4.77-1.13-6.56,0.66
				c-1.59,1.6-1.05,4.19-1.74,6.27c-0.19,0.58-0.29,1.2-0.55,1.75c-1.4,2.95-0.01,3.98,2.77,4.21c1.53,0.12,4.11-0.84,3.89,1.79
				c-0.18,2.14-2.72,1.64-4.31,1.62c-3.77-0.04-6.73,3.66-5.56,7.24c0.58,1.77,2.33,1.46,3.64,1.94c1.59,0.59,4.53,0.27,4.2,2.41
				c-0.32,2.09-3.02,1.25-4.78,1.13c-1.7-0.12-3.4-0.36-5.1-0.48c-5.24-0.37-6.69-1.7-6.19-6.83c0.75-7.64,2.25-15.17,4.27-22.6
				c0.74-2.74,2.44-3.74,5.1-3.53C264.51,384.3,268.43,384.27,272.02,385.26z"/>
		</g>
	</g>
	<path class="st1" d="M141.67,360.25c2.93,2.95,4.45,2.08,5.45-0.31c1.96,0.67-1.28,3.93,2.01,3.59c1.52-0.16,2.55-1.96,4.4-1.44
		c-2.99,4.27-2.99,4.27-0.11,6.04c-1.34,1.37-2.9-0.26-4.02,0.34c-1.85,0.99,0.32,2.32-0.23,4.09c-3.19-5.02-7.47-1.93-11.31-1.85
		c-0.34-0.98,0.4-1.26,0.79-1.54c1.04-0.76,3.01-0.78,3.07-2.23c0.07-1.58-2.26-1-3.18-2.29
		C139.75,363.43,143.49,364.99,141.67,360.25z"/>
	<path class="st1" d="M254.61,340.64c-4.1-2.27-6.47,1.86-9.6,2.14c-1.5-1.48,1.99-2.87-0.11-4.2c-0.95-0.6-2.01-1.47-3.15-0.85
		c0.14,0.3,0.28,0.59,0.42,0.89c1.89-2.45,3.79-4.89,5.42-7c0.47,2.28,0.5,2.28,6.87-1.6c-1.58,3.1-2.49,5.8,2.19,5.15
		C256.81,337.48,249.28,335.97,254.61,340.64z"/>
	<path class="st1" d="M264.1,348.37c-1.47,1.06-3.2,0.84-3.36,2.54c-1.59-0.23-2.55,3.65-4.77,0.56c-0.6-0.83-2.13,1.16-3.8,1.38
		c0.35-2.43,2.59-4.35,1.1-6.89c-0.18-0.3,3.09-2.13,3.29-1.79c1.61,2.71,2.66,0.93,3.86-0.21c0.66-0.63,1.28-1.87,2.32-0.9
		c0.91,0.85-0.26,1.48-0.76,2.05C259.91,347.42,262.66,347.38,264.1,348.37z"/>
	<path class="st1" d="M156.95,377.4c-0.37,0.51-0.75,1.02-1.12,1.53c-2.37,0.45-4.56,0.99-1.76,3.7c-0.85,1.2-1.93,0.48-2.83,0.78
		c-1.77,0.59-4.1,2.98-5.15-1.06c-0.15-0.57-1.88-0.72-3.48-1.28c2.68-1.27,1.89-5.12,5.34-5.15c0.22,0,0.44-0.2,0.66-0.3
		C150.51,380.32,154.39,375.75,156.95,377.4z"/>
</g>
</svg>
